<mxfile host="app.diagrams.net" modified="2022-05-06T09:16:36.029Z" agent="5.0 (Windows NT 10.0; Win64; x64) AppleWebKit/537.36 (KHTML, like Gecko) Chrome/100.0.4896.127 Safari/537.36" etag="laO7ZBor_EV6hHPeYqYr" version="17.4.5" type="github">
  <diagram id="FJGyW_m41Oil5FD7QTVI" name="Page-1">
    <mxGraphModel dx="1278" dy="491" grid="1" gridSize="10" guides="1" tooltips="1" connect="1" arrows="1" fold="1" page="1" pageScale="1" pageWidth="1169" pageHeight="1654" math="0" shadow="0">
      <root>
        <mxCell id="0" />
        <mxCell id="1" parent="0" />
        <mxCell id="zHj45qtNkuRzu1C0QYln-14" value="" style="edgeStyle=orthogonalEdgeStyle;rounded=0;orthogonalLoop=1;jettySize=auto;html=1;" edge="1" parent="1" source="zHj45qtNkuRzu1C0QYln-1" target="zHj45qtNkuRzu1C0QYln-2">
          <mxGeometry relative="1" as="geometry" />
        </mxCell>
        <mxCell id="zHj45qtNkuRzu1C0QYln-1" value="正常启动系统" style="rounded=1;whiteSpace=wrap;html=1;" vertex="1" parent="1">
          <mxGeometry x="70" y="30" width="120" height="60" as="geometry" />
        </mxCell>
        <mxCell id="zHj45qtNkuRzu1C0QYln-13" value="" style="edgeStyle=orthogonalEdgeStyle;rounded=0;orthogonalLoop=1;jettySize=auto;html=1;" edge="1" parent="1" source="zHj45qtNkuRzu1C0QYln-2" target="zHj45qtNkuRzu1C0QYln-5">
          <mxGeometry relative="1" as="geometry" />
        </mxCell>
        <mxCell id="zHj45qtNkuRzu1C0QYln-2" value="显示提示输入信息,要求输入投入的钱币金额" style="rounded=1;whiteSpace=wrap;html=1;" vertex="1" parent="1">
          <mxGeometry x="65" y="120" width="130" height="60" as="geometry" />
        </mxCell>
        <mxCell id="zHj45qtNkuRzu1C0QYln-8" style="edgeStyle=orthogonalEdgeStyle;rounded=0;orthogonalLoop=1;jettySize=auto;html=1;exitX=0.5;exitY=1;exitDx=0;exitDy=0;entryX=0.5;entryY=0;entryDx=0;entryDy=0;" edge="1" parent="1" source="zHj45qtNkuRzu1C0QYln-5" target="zHj45qtNkuRzu1C0QYln-6">
          <mxGeometry relative="1" as="geometry" />
        </mxCell>
        <mxCell id="zHj45qtNkuRzu1C0QYln-5" value="投币金额是否符合标准(是否为10元、5元、2元、1元和0.5元)" style="rhombus;whiteSpace=wrap;html=1;" vertex="1" parent="1">
          <mxGeometry x="37.5" y="210" width="185" height="100" as="geometry" />
        </mxCell>
        <mxCell id="zHj45qtNkuRzu1C0QYln-11" value="" style="edgeStyle=orthogonalEdgeStyle;rounded=0;orthogonalLoop=1;jettySize=auto;html=1;" edge="1" parent="1" source="zHj45qtNkuRzu1C0QYln-6" target="zHj45qtNkuRzu1C0QYln-7">
          <mxGeometry relative="1" as="geometry" />
        </mxCell>
        <mxCell id="zHj45qtNkuRzu1C0QYln-6" value="记录到总金额,并提示继续投币请输入1，购买饮料请输入2" style="rounded=1;whiteSpace=wrap;html=1;" vertex="1" parent="1">
          <mxGeometry x="60" y="350" width="140" height="60" as="geometry" />
        </mxCell>
        <mxCell id="zHj45qtNkuRzu1C0QYln-12" style="edgeStyle=orthogonalEdgeStyle;rounded=0;orthogonalLoop=1;jettySize=auto;html=1;exitX=0.5;exitY=1;exitDx=0;exitDy=0;entryX=1;entryY=0.5;entryDx=0;entryDy=0;" edge="1" parent="1" source="zHj45qtNkuRzu1C0QYln-7" target="zHj45qtNkuRzu1C0QYln-2">
          <mxGeometry relative="1" as="geometry">
            <mxPoint x="215" y="310" as="targetPoint" />
            <Array as="points">
              <mxPoint x="130" y="520" />
              <mxPoint x="260" y="520" />
              <mxPoint x="260" y="150" />
            </Array>
          </mxGeometry>
        </mxCell>
        <mxCell id="zHj45qtNkuRzu1C0QYln-7" value="判断输入" style="rhombus;whiteSpace=wrap;html=1;" vertex="1" parent="1">
          <mxGeometry x="75" y="440" width="110" height="60" as="geometry" />
        </mxCell>
        <mxCell id="zHj45qtNkuRzu1C0QYln-9" value="是" style="text;html=1;strokeColor=none;fillColor=none;align=center;verticalAlign=middle;whiteSpace=wrap;rounded=0;" vertex="1" parent="1">
          <mxGeometry x="100" y="320" width="42" height="20" as="geometry" />
        </mxCell>
        <mxCell id="zHj45qtNkuRzu1C0QYln-10" value="是1" style="text;html=1;strokeColor=none;fillColor=none;align=center;verticalAlign=middle;whiteSpace=wrap;rounded=0;" vertex="1" parent="1">
          <mxGeometry x="250" y="380" width="42" height="20" as="geometry" />
        </mxCell>
      </root>
    </mxGraphModel>
  </diagram>
</mxfile>
